<svg xmlns="http://www.w3.org/2000/svg" viewBox="0 0 48 48" xmlns:xlink="http://www.w3.org/1999/xlink" xml:space="preserve" width="100%" height="100%"><g xmlns="http://www.w3.org/2000/svg" fill="currentColor" transform="scale(3)"><path fill-rule="evenodd" d="M4 1h8a2 2 0 0 1 2 2v10a2 2 0 0 1-2 2H4a2 2 0 0 1-2-2V3a2 2 0 0 1 2-2m0 1a1 1 0 0 0-1 1v10a1 1 0 0 0 1 1h8a1 1 0 0 0 1-1V3a1 1 0 0 0-1-1z"></path><path d="M13.784 14c-.497-1.27-1.988-3-5.784-3s-5.287 1.73-5.784 3z"></path><path fill-rule="evenodd" d="M8 10a3 3 0 1 0 0-6 3 3 0 0 0 0 6"></path></g></svg>